<?xml version="1.0" encoding="utf-8"?>
<!-- Generator: Adobe Illustrator 15.0.2, SVG Export Plug-In  -->
<!DOCTYPE svg PUBLIC "-//W3C//DTD SVG 1.1//EN" "http://www.w3.org/Graphics/SVG/1.1/DTD/svg11.dtd" [
	<!ENTITY ns_flows "http://ns.adobe.com/Flows/1.0/">
]>
<svg version="1.1"
	 xmlns="http://www.w3.org/2000/svg" xmlns:xlink="http://www.w3.org/1999/xlink" xmlns:a="http://ns.adobe.com/AdobeSVGViewerExtensions/3.0/"
	 x="0px" y="0px" width="215px" height="36px" viewBox="-5 -4.959 215 36" enable-background="new -5 -4.959 215 36"
	 xml:space="preserve">
<defs>
</defs>
<path fill="#00B7D3" d="M41.636,4.696c-7.867-5.558-22.69-6.295-32.867-1.611c-9.806,4.511-11.714,13.32-4.065,18.693
	c7.796,5.484,22.936,6.228,32.869,1.614C47.872,18.606,49.656,10.369,41.636,4.696z M16.229,22.26
	c-4.146-2.922-3.144-7.808,2.237-10.299c5.47-2.532,13.756-2.179,18.105,0.891c2.66,1.874,3.32,4.289,2.199,6.489
	c-0.863,0.646-1.859,1.25-2.999,1.797c1.174-1.66,0.863-3.591-1.184-5.034c-3.031-2.139-8.789-2.397-12.634-0.618
	c-3.818,1.766-4.53,5.095-1.563,7.184c0.533,0.376,1.182,0.676,1.871,0.935c-1.483-0.049-2.95-0.165-4.359-0.393
	C17.294,22.929,16.73,22.612,16.229,22.26z M34.35,21.707c-2.701,1.067-5.785,1.709-8.952,1.882
	c-0.806-0.219-1.537-0.532-2.126-0.948c-2.241-1.571-1.715-3.946,1.142-5.256c2.85-1.31,7.087-1.076,9.244,0.456
	C35.184,18.917,35.352,20.443,34.35,21.707z M39.773,18.518c1.896-2.938,1.329-6.192-2.045-8.576
	C32.615,6.337,22.488,6.2,15.785,9.549c-5.883,2.93-7.552,8.26-4.316,11.771c-0.86-0.399-1.657-0.832-2.358-1.324
	C3.273,15.875,4.72,8.546,12.374,5.001c7.918-3.664,20.09-3.132,26.363,1.296C43.774,9.851,43.953,14.736,39.773,18.518z"/>
<path fill="#00B7D3" d="M86.509,26.125V2.359h-8.5V0h19.475v2.359h-8.5v23.766H86.509z"/>
<path fill="#00B7D3" d="M116.212,26.125l-3.008-7.598h-12.341l-2.998,7.598h-2.504L105.613,0h2.92l10.252,26.125H116.212z
	 M107.132,2.846h-0.188l-5.274,13.406h10.739L107.132,2.846z"/>
<path fill="#00B7D3" d="M121.966,0h8.094c3.566,0,6.078,0.307,7.533,0.914c1.455,0.604,2.385,1.744,2.792,3.414
	c0.406,1.67,0.604,4.578,0.604,8.736c0,4.146-0.197,7.063-0.604,8.732c-0.407,1.664-1.337,2.811-2.792,3.416
	s-3.967,0.912-7.533,0.912h-8.094V0z M129.409,23.85c3.216,0,5.384-0.182,6.496-0.516c1.11-0.344,1.833-1.182,2.167-2.529
	c0.324-1.338,0.487-3.92,0.487-7.74c0-3.777-0.173-6.344-0.505-7.707c-0.345-1.375-1.085-2.223-2.205-2.564
	c-1.129-0.344-3.278-0.516-6.44-0.516h-5.014V23.85H129.409z"/>
<path fill="#00B7D3" d="M146.139,26.125V0h2.431v26.125H146.139z"/>
<path fill="#00B7D3" d="M173.35,0v14.809c0,3.367-0.219,5.824-0.635,7.387c-0.414,1.555-1.3,2.646-2.637,3.281
	c-1.346,0.631-3.514,0.947-6.532,0.947c-3.008,0-5.194-0.316-6.548-0.967c-1.355-0.643-2.241-1.742-2.657-3.279
	c-0.414-1.545-0.633-4.002-0.633-7.369V0h2.432v16.025c0,2.457,0.146,4.211,0.442,5.26c0.29,1.045,0.93,1.787,1.933,2.221
	c1.003,0.424,2.685,0.641,5.031,0.641c2.358,0,4.03-0.217,5.033-0.641c1.003-0.434,1.634-1.176,1.913-2.221
	c0.28-1.049,0.416-2.803,0.416-5.26V0H173.35z"/>
<path fill="#00B7D3" d="M202.256,26.125V4.328h-0.145l-9.803,21.797h-1.86l-9.792-21.797h-0.153v21.797h-2.322V0h3.271l9.873,21.943
	h0.19L201.424,0h3.225v26.125H202.256z"/>
<path fill="#00B7D3" d="M76.555,19.35c0.007-0.045,0.007-0.08,0.007-0.125c0.01-1.42,0-5.693-3.069-7.191
	c-1.354-0.668-3.803-0.875-7.199-0.885c0,0-4.536-0.117-5.456-0.396c-0.732-0.227-1.013-0.588-1.402-1.258
	C59.372,9.33,59.317,9.17,59.272,8.98c-0.081-0.326-0.153-0.732-0.216-1.213l0,0c-0.072-0.604,0-1.318,0.017-1.516
	c0.064-0.406,0.128-0.758,0.199-1.057c0.335-1.32,1.048-2.15,2.142-2.486c1.094-0.332,3.17-0.496,6.243-0.496h4.868h2.394V0h-7.887
	c-3.469,0-5.907,0.299-7.316,0.887c-1.418,0.586-2.322,1.688-2.709,3.314c-0.091,0.387-0.183,0.84-0.246,1.355l0,0
	c-0.007,0.008-0.007,0.008-0.007,0.008c-0.02,0.189-0.046,0.381-0.065,0.588l0,0c0,0-0.09,1.131,0,1.879
	c0.027,0.271,0.046,0.398,0.065,0.576c0,0.012,0,0.012,0.007,0.02l0,0c0.038,0.309,0.091,0.586,0.137,0.85h-0.019
	c0.406,1.555,0.966,2.539,2.285,3.297c1.354,0.777,7.102,0.688,7.102,0.688c2.664,0.018,5.357,0.152,6.205,0.76
	c1.699,1.219,1.708,3.449,1.708,5.129c-0.009,0.117-0.009,0.242-0.027,0.363l0,0c-0.063,0.477-0.135,0.883-0.218,1.209
	c-0.334,1.328-1.047,2.158-2.141,2.494c-1.093,0.324-3.17,0.498-6.242,0.498h-4.869l-3.576-0.01v2.221h9.069
	c3.469,0,5.907-0.299,7.317-0.887c1.417-0.586,2.322-1.697,2.709-3.313c0.09-0.389,0.181-0.84,0.245-1.355c0,0,0,0,0-0.008
	c0,0,0,0,0-0.01c0.026-0.182,0.045-0.307,0.071-0.578c0.027-0.154,0.027-0.336,0.037-0.508l0,0
	C76.555,19.434,76.555,19.387,76.555,19.35z"/>
</svg>
